<?xml version="1.0" encoding="UTF-8"?>
<svg xmlns="http://www.w3.org/2000/svg" viewBox="0 0 800 1000" preserveAspectRatio="xMidYMid slice">
    <rect width="800" height="1000" fill="#FFFFFF"/>
    <rect x="40" y="40" width="720" height="920" fill="none" stroke="#ECEDEA" stroke-width="1"/>

    <g stroke="#2D4D31" stroke-width="1.5" fill="none" stroke-linecap="round" stroke-linejoin="round">
        <path d="M 320 380 L 320 600 Q 320 660 380 660 L 460 660 Q 520 660 520 600 L 520 380 Z"/>
        <path d="M 520 420 L 580 420 Q 620 420 620 460 L 620 510 Q 620 550 580 550 L 520 550"/>
        <ellipse cx="420" cy="380" rx="100" ry="14"/>
        <path d="M 360 340 Q 360 320 380 320 Q 400 320 400 340"/>
        <path d="M 410 340 Q 410 310 430 310 Q 450 310 450 340"/>
        <path d="M 460 340 Q 460 320 480 320 Q 500 320 500 340"/>
        <path d="M 280 720 L 560 720"/>
    </g>

    <g fill="none" stroke="#2D4D31" stroke-width="1">
        <circle cx="160" cy="200" r="2"/>
        <circle cx="640" cy="240" r="2"/>
        <circle cx="120" cy="780" r="2"/>
        <circle cx="680" cy="820" r="2"/>
    </g>

    <text x="400" y="820" text-anchor="middle" font-family="Inter, system-ui, sans-serif" font-size="14" letter-spacing="4" fill="#2D4D31" font-weight="500">WARKOP MEDAN</text>
    <text x="400" y="848" text-anchor="middle" font-family="Inter, system-ui, sans-serif" font-size="11" letter-spacing="3" fill="#9CA39E">DI JAKARTA</text>
</svg>
